HIERARCHY
ROOT Hips
{
	OFFSET 0.000000 0.000000 0.000000 
	CHANNELS 6 Xposition Yposition Zposition Yrotation Zrotation Xrotation 
	JOINT Lumbar
	{
		OFFSET 0.000000 0.000000 0.000000 
		CHANNELS 3 Zrotation Xrotation Yrotation
		JOINT Neck
		{
			OFFSET 0.000000 0.445665 0.000000 
			CHANNELS 3 Zrotation Xrotation Yrotation
			End Site
			{
				OFFSET 0.000000 0.227535 0.000000 
			}
		}
		JOINT RightShoulder
		{
			OFFSET 0.019635 0.377685 0.194865 
			CHANNELS 3 Zrotation Xrotation Yrotation
			JOINT RightElbow
			{
				OFFSET 0.000000 -0.243375 0.000000 
				CHANNELS 2 Zrotation Yrotation
				JOINT RightWrist
				{
					OFFSET 0.000000 -0.264825 0.000000 
					CHANNELS 2 Zrotation Xrotation
					End Site
					{
						OFFSET 0.006600 -0.176220 0.000990 
					}
				}
			}
		}
		JOINT LeftShoulder
		{
			OFFSET 0.019635 0.377685 -0.194865 
			CHANNELS 3 Zrotation Xrotation Yrotation
			JOINT LeftElbow
			{
				OFFSET 0.000000 -0.243375 0.000000 
				CHANNELS 2 Zrotation Yrotation
				JOINT LeftWrist
				{
					OFFSET 0.000000 -0.264825 0.000000 
					CHANNELS 2 Zrotation Xrotation
					End Site
					{
						OFFSET 0.006600 -0.176220 -0.000990 
					}
				}
			}
		}
	}
	JOINT RightHip
	{
		OFFSET 0.052140 -0.069960 0.075570 
		CHANNELS 3 Zrotation Xrotation Yrotation
		JOINT RightKnee
		{
			OFFSET 0.000000 -0.402270 0.000000 
			CHANNELS 1 Zrotation
			JOINT RightAnkle
			{
				OFFSET 0.000000 -0.404085 0.000000 
				CHANNELS 3 Zrotation Xrotation Yrotation
				End Site
				{
					OFFSET 0.204105 -0.089430 0.008415 
				}
			}
		}
	}
	JOINT LeftHip
	{
		OFFSET 0.052140 -0.069960 -0.075570 
		CHANNELS 3 Zrotation Xrotation Yrotation
		JOINT LeftKnee
		{
			OFFSET 0.000000 -0.402270 0.000000 
			CHANNELS 1 Zrotation
			JOINT LeftAnkle
			{
				OFFSET 0.000000 -0.404085 0.000000 
				CHANNELS 3 Zrotation Xrotation Yrotation
				End Site
				{
					OFFSET 0.204105 -0.089430 -0.008415 
				}
			}
		}
	}
}
MOTION
Frames: 24
Frame Time: 0.02
-0.0505 -0.48337 -0.02374 -160.26143 -29.36133 8.17884 37.94363 4.02364 4.42197 0.79981 -13.3586 -0.8298 53.42194 -0.30353 32.18329 86.36157 98.46146 -32.26026 -5.81482 117.41697 7.87002 -56.86135 35.3881 -31.31575 50.61129 9.1427 30.6552 -12.9703 -1.77593 -123.88071 -5.36362 -1.90397 -1.5787 111.00487 1.84607 2.46927 -139.81564 -5.19579 2.67051 1.94394
-0.05369 -0.48296 -0.02557 -160.45345 -29.00205 8.38892 38.35695 3.98577 4.62 0.8628 -13.35953 -0.8298 52.58388 -0.10398 32.4748 86.83759 97.99802 -32.02352 -5.76995 116.68771 8.51493 -57.08866 36.47835 -31.26421 50.50019 9.15771 29.94973 -12.90367 -1.67844 -123.45175 -5.36355 -1.90486 -1.5758 110.40006 1.98704 2.12902 -140.00718 -5.2043 2.63353 1.92475
-0.05701 -0.48242 -0.0272 -160.69835 -28.67449 8.63187 38.84261 3.92968 4.82967 0.98827 -13.34566 -0.8298 51.56485 0.12992 32.821 87.65904 97.99172 -32.11516 -5.76391 115.93427 9.30537 -57.36382 37.8748 -31.1927 50.38052 9.17814 29.26098 -12.84668 -1.47227 -122.98501 -5.35905 -1.91758 -1.57588 109.80515 2.17823 1.81589 -140.20445 -5.21464 2.58956 1.90124
-0.06028 -0.48196 -0.02889 -160.91823 -28.32995 8.85742 39.29631 3.88535 5.02695 1.0749 -13.33936 -0.8298 50.62457 0.35034 33.14757 88.34589 97.79344 -32.06368 -5.74186 115.1921 10.04342 -57.61784 39.15741 -31.12661 50.2415 9.19846 28.55978 -12.78678 -1.32342 -122.53593 -5.35648 -1.92516 -1.57496 109.20344 2.34825 1.49507 -140.40094 -5.22436 2.54859 1.87972
-0.06356 -0.48143 -0.03069 -161.14399 -27.99337 9.09398 39.74786 3.82704 5.25625 1.2039 -13.32915 -0.82981 49.69515 0.56317 33.45449 88.93677 97.49809 -31.96646 -5.71016 114.44728 10.7309 -57.88006 40.34203 -31.05824 50.20196 9.21176 27.87456 -12.72416 -1.14155 -122.08259 -5.35438 -1.93139 -1.57241 108.60619 2.51183 1.15695 -140.59095 -5.23323 2.50841 1.8582
-0.06682 -0.48102 -0.03223 -161.36901 -27.64953 9.31467 40.22077 3.79323 5.41988 1.26067 -13.32338 -0.82981 48.70326 0.79818 33.81479 89.80912 97.52244 -32.0475 -5.70869 113.70096 11.55203 -58.12463 41.79808 -31.00952 49.95049 9.23784 27.16237 -12.6675 -1.00249 -121.6298 -5.3502 -1.94337 -1.57402 108.00426 2.70013 0.86042 -140.79482 -5.2442 2.46508 1.83569
-0.07005 -0.48099 -0.03314 -161.58403 -27.26932 9.48985 40.73014 3.83166 5.41144 1.09655 -13.33757 -0.82981 47.56313 1.10138 34.30317 91.38651 98.35232 -32.5739 -5.78323 112.98102 12.74863 -58.40818 43.95119 -30.85565 49.145 9.32354 26.36405 -12.63369 -1.00818 -121.19055 -5.34136 -1.96833 -1.58653 107.38427 2.94965 0.67245 -141.04229 -5.26138 2.41259 1.8106
-0.07324 -0.48109 -0.0338 -161.79547 -26.8825 9.64678 41.25874 3.89524 5.33442 0.85899 -13.35608 -0.82981 46.37061 1.42279 34.84327 93.23286 99.48656 -33.26566 -5.8871 112.25775 14.0665 -58.65584 46.36022 -30.7491 48.12301 9.41762 25.54003 -12.60392 -1.06076 -120.75318 -5.33056 -1.99869 -1.60311 106.76056 3.22136 0.525 -141.30223 -5.28045 2.35751 1.7848
-0.07643 -0.48114 -0.03457 -162.00497 -26.50474 9.80786 41.7819 3.94712 5.28031 0.6591 -13.37004 -0.82982 45.21524 1.72587 35.36416 94.94893 100.46349 -33.86271 -5.97632 111.51854 15.3006 -58.85147 48.63834 -30.73443 47.179 9.49019 24.73315 -12.56567 -1.09171 -120.31322 -5.32061 -2.02668 -1.61777 106.14085 3.47943 0.35848 -141.55191 -5.29805 2.30505 1.75991
-0.07971 -0.48117 -0.03534 -162.23101 -26.10293 9.98747 42.29525 3.99953 5.26018 0.4428 -13.3944 -0.82982 43.99637 2.07283 35.87213 96.71283 101.53567 -34.55226 -6.0715 110.84618 16.66026 -59.32766 50.99523 -30.25777 46.31362 9.63526 23.90341 -12.55422 -1.11981 -119.87841 -5.31064 -2.05486 -1.63287 105.51109 3.75413 0.19582 -141.82099 -5.31819 2.2464 1.73244
-0.08279 -0.48127 -0.03606 -162.42155 -25.74866 10.1239 42.8307 4.05703 5.15447 0.243 -13.39833 -0.82982 42.90071 2.33199 36.41449 98.43418 102.47621 -35.08562 -6.16188 110.04152 17.78601 -59.22246 53.23691 -30.73301 45.24221 9.63429 23.11537 -12.48982 -1.16694 -119.43486 -5.30036 -2.08362 -1.64793 104.90195 3.99898 0.03424 -142.05281 -5.33358 2.19993 1.71015
-0.08538 -0.4815 -0.03671 -162.51039 -25.53232 10.14375 43.43871 4.1226 4.81492 0.10139 -13.34475 -0.82983 42.1506 2.34608 37.0739 99.98961 102.97486 -35.13408 -6.22113 108.80867 18.22838 -57.41533 55.16287 -34.01498 43.57714 9.20166 22.44602 -12.26032 -1.2508 -118.9582 -5.28923 -2.11382 -1.66241 104.34511 4.15423 -0.13292 -142.17632 -5.3345 2.1893 1.70304
-0.08777 -0.4818 -0.03732 -162.56415 -25.36309 10.12098 44.06496 4.19249 4.3942 -0.02043 -13.27057 -0.82983 41.52874 2.27055 37.75947 101.48726 103.32869 -35.02006 -6.27579 107.45457 18.43151 -55.04335 56.94975 -38.21902 41.72674 8.6265 21.82021 -11.98043 -1.35341 -118.47452 -5.27796 -2.14418 -1.67659 103.81026 4.27863 -0.30064 -142.26227 -5.33072 2.19077 1.70107
-0.09023 -0.48206 -0.03795 -162.6368 -25.16865 10.1187 44.67173 4.26036 4.01997 -0.14812 -13.20588 -0.82983 40.85382 2.23483 38.40985 102.99915 103.74969 -34.98804 -6.34011 106.19817 18.74895 -52.9993 58.75682 -41.87524 40.01218 8.13405 21.17595 -11.73564 -1.45103 -117.99974 -5.26711 -2.17361 -1.6905 103.26879 4.41815 -0.46926 -142.367 -5.32966 2.18568 1.69631
-0.09278 -0.48235 -0.03858 -162.69723 -24.98944 10.11095 45.32612 4.32925 3.60287 -0.29143 -13.14067 -0.82983 40.15437 2.20413 39.15996 104.57435 104.17743 -34.92945 -6.37581 104.76277 19.04855 -50.65499 60.75706 -46.07249 38.07217 7.56683 20.52425 -11.44061 -1.53594 -117.50062 -5.25474 -2.20674 -1.70621 102.71248 4.55424 -0.63208 -142.4651 -5.32623 2.18488 1.69342
-0.0951 -0.48259 -0.03919 -162.77444 -24.79052 10.10486 45.8858 4.3968 3.25662 -0.39665 -13.07173 -0.82983 39.53785 2.14081 39.70848 105.9967 104.55075 -34.88305 -6.46674 103.67022 19.32513 -48.80031 62.31548 -49.36661 36.5605 7.12059 19.89982 -11.23683 -1.65037 -117.05086 -5.24547 -2.23228 -1.71815 102.19294 4.68935 -0.80703 -142.5677 -5.32654 2.17816 1.68789
-0.09686 -0.48272 -0.03978 -162.90962 -24.51953 10.11233 46.17545 4.45906 3.12666 -0.40035 -12.99627 -0.82984 39.11331 2.01448 39.68835 107.04023 104.82421 -34.92976 -6.73637 103.56665 19.6113 -48.45761 62.71173 -49.88837 36.28092 7.05092 19.33095 -11.30936 -1.84883 -116.7364 -5.24523 -2.23553 -1.71878 101.76453 4.83346 -1.02074 -142.69372 -5.33859 2.15139 1.67343
-0.0984 -0.48281 -0.04036 -163.06235 -24.22827 10.12317 46.36959 4.51984 3.07091 -0.36616 -12.91793 -0.82984 38.76891 1.85728 39.46532 107.92469 105.04379 -34.99033 -7.05724 103.81109 19.87957 -48.62568 62.66229 -49.47497 36.44062 7.10699 18.78986 -11.47332 -2.07485 -116.47244 -5.24804 -2.23136 -1.71579 101.37335 4.97671 -1.24587 -142.82516 -5.35433 2.11838 1.65617
-0.10004 -0.48291 -0.04093 -163.20509 -23.95035 10.1337 46.61022 4.58148 2.9811 -0.34981 -12.84177 -0.82984 38.39212 1.71084 39.33844 108.86196 105.27632 -35.03007 -7.33761 103.88658 20.14534 -48.54279 62.80006 -49.52936 36.39584 7.09976 18.2421 -11.58741 -2.28329 -116.18705 -5.24916 -2.23144 -1.71512 100.96837 5.11756 -1.4624 -142.95283 -5.36844 2.08874 1.64045
-0.10168 -0.48303 -0.04154 -163.35514 -23.65665 10.13817 46.8393 4.64234 2.89016 -0.33054 -12.76141 -0.82984 38.00371 1.57537 39.19542 109.88125 105.55165 -35.12337 -7.68907 103.99885 20.44623 -48.50985 62.99823 -49.45203 36.35892 7.11135 17.67061 -11.73442 -2.51351 -115.89469 -5.25151 -2.22786 -1.71168 100.55082 5.2693 -1.69318 -143.08466 -5.38295 2.05735 1.62386
-0.10327 -0.4831 -0.04206 -163.49454 -23.39036 10.15586 47.06849 4.70463 2.81984 -0.30818 -12.68914 -0.82984 37.65568 1.41053 39.03807 110.69064 105.72819 -35.1133 -7.90648 104.12444 20.67472 -48.51387 62.96612 -49.39394 36.41993 7.11821 17.15472 -11.83578 -2.70497 -115.62931 -5.25206 -2.23009 -1.71305 100.16821 5.39834 -1.89714 -143.20966 -5.39663 2.02785 1.60828
-0.10484 -0.48306 -0.04232 -163.60067 -23.20505 10.21602 47.32988 4.76925 2.79238 -0.29024 -12.64197 -0.82984 37.40898 1.17555 38.88544 110.97599 105.63147 -34.78886 -7.72536 104.15269 20.69104 -48.38949 62.41007 -49.79839 36.57885 7.05795 16.78438 -11.78424 -2.7797 -115.42286 -5.24661 -2.25056 -1.72944 99.87142 5.46632 -2.02294 -143.31408 -5.41104 2.00512 1.59629
-0.10637 -0.48298 -0.04248 -163.69551 -23.04785 10.28834 47.59303 4.83567 2.78273 -0.26994 -12.60279 -0.82984 37.19752 0.91188 38.72627 111.05274 105.43855 -34.36406 -7.41029 104.19135 20.63858 -48.30525 61.63751 -50.22 36.83297 6.99336 16.46919 -11.68464 -2.81481 -115.24245 -5.2393 -2.27704 -1.75065 99.60873 5.51101 -2.12164 -143.4116 -5.42102 1.98387 1.58501
-0.1079 -0.48293 -0.04268 -163.79547 -22.87715 10.35083 47.84959 4.90259 2.76273 -0.24833 -12.55866 -0.82984 36.96341 0.65957 38.57341 111.21435 105.30174 -34.00451 -7.16724 104.25892 20.63079 -48.27716 60.96321 -50.50567 37.08877 6.94714 16.12907 -11.61028 -2.87006 -115.05223 -5.23301 -2.30055 -1.76913 99.3313 5.5661 -2.23349 -143.51285 -5.434 1.96262 1.57383
